<svg xmlns="http://www.w3.org/2000/svg" xmlns:xlink="http://www.w3.org/1999/xlink" width="50" zoomAndPan="magnify" viewBox="0 0 37.5 37.499999" height="50" preserveAspectRatio="xMidYMid meet" version="1.0"><defs><g/><clipPath id="id1"><path d="M 17.960938 22.246094 L 26.210938 22.246094 L 26.210938 32.746094 L 17.960938 32.746094 Z M 17.960938 22.246094 " clip-rule="nonzero"/></clipPath></defs><g fill="#09504c" fill-opacity="1"><g transform="translate(2.240215, 34.16739)"><g><path d="M 5.789062 -27.359375 L 5.789062 -2.390625 L 2.308594 -2.390625 L 2.308594 0 L 12.296875 0 L 12.296875 -2.390625 L 8.6875 -2.390625 L 8.6875 -13.429688 L 19.09375 -13.429688 L 19.09375 -15.863281 L 8.6875 -15.863281 L 8.6875 -27.359375 L 20.898438 -27.359375 L 20.898438 -23.792969 L 23.332031 -23.792969 L 23.332031 -29.792969 L 2.308594 -29.792969 L 2.308594 -27.359375 Z M 5.789062 -27.359375 "/></g></g></g><g clip-path="url(#id1)"><path fill="#09504c" d="M 23.605469 22.269531 C 23.652344 22.269531 23.699219 22.269531 23.746094 22.269531 C 23.746094 22.277344 23.746094 22.285156 23.746094 22.292969 C 23.859375 22.347656 23.890625 22.570312 23.867188 22.835938 C 23.835938 23.25 23.621094 23.777344 23.582031 24.339844 C 23.535156 24.988281 23.730469 25.632812 23.554688 26.113281 C 23.367188 26.628906 23.003906 26.933594 22.957031 27.394531 C 22.910156 27.890625 23.171875 28.726562 23.507812 29.019531 C 23.675781 29.164062 24.039062 29.21875 24.296875 29.167969 C 24.5625 29.113281 24.667969 28.8125 25.015625 28.824219 C 25.226562 28.828125 25.410156 29.019531 25.613281 29.117188 C 25.824219 29.222656 26.015625 29.304688 26.210938 29.414062 C 25.855469 29.539062 25.355469 29.660156 25.160156 29.980469 C 25.046875 30.160156 25.035156 30.453125 24.894531 30.621094 C 24.730469 30.820312 24.371094 31.011719 24.082031 31.164062 C 23.273438 31.589844 22.199219 31.636719 21.261719 31.1875 C 20.59375 31.765625 20.164062 32.71875 19.011719 32.714844 C 18.976562 32.519531 19.269531 32.410156 19.179688 32.320312 C 18.875 32.359375 18.363281 32.597656 18.105469 32.371094 C 18.144531 32.09375 18.386719 32.019531 18.535156 31.851562 C 18.433594 31.871094 18.222656 31.910156 18.128906 31.851562 C 18.234375 31.566406 18.523438 31.40625 18.773438 31.261719 C 19.53125 30.820312 20.460938 30.507812 21.261719 30.105469 C 20.734375 29.757812 19.40625 29.253906 19.730469 28.257812 C 19.171875 27.949219 18.683594 27.445312 18.796875 26.53125 C 18.5625 26.207031 18.195312 25.925781 18.199219 25.472656 C 18.199219 25.359375 18.296875 25.238281 18.296875 25.128906 C 18.289062 24.992188 18.152344 24.800781 18.105469 24.660156 C 18.046875 24.492188 18.007812 24.339844 17.960938 24.167969 C 17.960938 24.042969 17.960938 23.921875 17.960938 23.796875 C 18.109375 23.417969 18.347656 23.898438 18.488281 24.140625 C 19.027344 25.09375 19.546875 25.925781 20.28125 26.628906 C 20.507812 26.847656 20.730469 27.023438 20.972656 27.222656 C 21.027344 27.265625 21.070312 27.390625 21.164062 27.34375 C 21.152344 26.761719 21.1875 26.28125 21.355469 25.84375 C 21.460938 25.570312 21.695312 25.351562 21.738281 25.128906 C 21.765625 24.992188 21.726562 24.867188 21.738281 24.734375 C 21.800781 24.03125 22.164062 23.605469 22.71875 23.355469 C 22.753906 22.980469 22.949219 22.769531 23.269531 22.6875 C 23.351562 22.519531 23.464844 22.378906 23.605469 22.269531 Z M 19.371094 32.492188 C 19.710938 32.480469 19.949219 32.21875 20.160156 32.023438 C 20.835938 31.40625 21.40625 30.734375 22.21875 30.277344 C 21.972656 30.566406 21.652344 30.777344 21.429688 31.089844 C 21.910156 31.253906 22.382812 31.398438 22.886719 31.382812 C 23.398438 31.371094 24.351562 30.910156 24.632812 30.644531 C 24.871094 30.421875 24.867188 30.0625 25.039062 29.808594 C 25.207031 29.5625 25.605469 29.488281 25.851562 29.363281 C 25.441406 29.382812 25.34375 28.972656 24.992188 28.996094 C 24.84375 29.003906 24.738281 29.15625 24.609375 29.214844 C 23.574219 29.699219 22.863281 28.738281 22.765625 27.863281 C 22.648438 26.761719 23.433594 26.539062 23.507812 25.59375 C 23.542969 25.164062 23.398438 24.761719 23.414062 24.363281 C 23.4375 23.707031 23.8125 23.121094 23.652344 22.441406 C 23.363281 22.453125 23.386719 22.824219 23.316406 23.03125 C 23.238281 23.285156 23.128906 23.515625 23.03125 23.699219 C 23.09375 23.414062 23.171875 23.136719 23.222656 22.835938 C 22.941406 22.894531 22.945312 23.300781 22.863281 23.601562 C 22.773438 23.917969 22.667969 24.257812 22.574219 24.511719 C 22.613281 24.195312 22.65625 23.886719 22.695312 23.574219 C 21.566406 23.898438 21.960938 25.832031 21.859375 27.148438 C 21.691406 26.695312 21.773438 25.988281 21.714844 25.421875 C 21.199219 26.125 21.277344 27.671875 21.476562 28.574219 C 21.4375 28.402344 21.359375 28.269531 21.332031 28.082031 C 20.386719 28.074219 21.449219 29.269531 21.5 29.535156 C 21.328125 29.242188 20.804688 28.824219 20.78125 28.355469 C 20.773438 28.140625 20.871094 27.878906 21.1875 27.886719 C 21.1875 27.804688 21.1875 27.722656 21.1875 27.640625 C 20.261719 26.917969 19.351562 26.023438 18.773438 24.953125 C 18.582031 24.601562 18.445312 24.179688 18.105469 23.96875 C 18.207031 24.765625 18.5625 25.4375 18.820312 25.988281 C 18.6875 25.773438 18.5625 25.550781 18.414062 25.347656 C 18.433594 26.125 19.125 26.554688 19.394531 27.074219 C 19.226562 26.941406 19.121094 26.75 18.917969 26.65625 C 18.902344 27.917969 20.007812 28.160156 20.613281 28.699219 C 20.375 28.570312 20.121094 28.449219 19.875 28.328125 C 19.769531 28.613281 19.839844 28.875 19.945312 29.019531 C 20.285156 29.484375 21.152344 29.796875 21.570312 30.128906 C 20.757812 30.503906 19.894531 30.90625 19.109375 31.285156 C 18.839844 31.414062 18.523438 31.503906 18.34375 31.753906 C 18.855469 31.734375 19.253906 31.457031 19.65625 31.410156 C 19.183594 31.65625 18.652344 31.851562 18.34375 32.269531 C 19.113281 32.398438 19.59375 31.886719 20.113281 31.753906 C 19.84375 31.980469 19.527344 32.152344 19.371094 32.492188 Z M 19.371094 32.492188 " fill-opacity="1" fill-rule="evenodd"/></g><g fill="#09504c" fill-opacity="1"><g transform="translate(26.706609, 3.430294)"><g><path d="M 4.578125 3.09375 C 3.910156 3.09375 3.5 2.910156 3.34375 2.546875 C 3.195312 2.992188 2.71875 3.21875 1.90625 3.21875 L 1.75 3.21875 C 1.125 3.207031 0.675781 3.097656 0.40625 2.890625 C 0.132812 2.679688 0 2.335938 0 1.859375 L 0 0.5 L 6.15625 0.5 L 6.15625 1.828125 C 6.15625 2.285156 6.046875 2.609375 5.828125 2.796875 C 5.617188 2.992188 5.265625 3.09375 4.765625 3.09375 Z M 0.734375 1.4375 L 0.734375 1.765625 C 0.734375 1.953125 0.796875 2.082031 0.921875 2.15625 C 1.046875 2.226562 1.273438 2.265625 1.609375 2.265625 L 2.109375 2.265625 C 2.421875 2.265625 2.640625 2.234375 2.765625 2.171875 C 2.890625 2.117188 2.953125 2.003906 2.953125 1.828125 L 2.953125 1.4375 Z M 3.65625 1.4375 L 3.65625 1.78125 C 3.65625 1.9375 3.707031 2.039062 3.8125 2.09375 C 3.914062 2.144531 4.128906 2.171875 4.453125 2.171875 L 4.8125 2.171875 C 5.050781 2.171875 5.210938 2.140625 5.296875 2.078125 C 5.378906 2.015625 5.421875 1.90625 5.421875 1.75 L 5.421875 1.4375 Z M 3.65625 1.4375 "/></g></g><g transform="translate(26.706609, 6.910669)"><g><path d="M 0 0.46875 L 6.15625 0.46875 L 6.15625 1.390625 L 0.796875 1.390625 L 0.796875 2.578125 L 0 2.578125 Z M 0 0.46875 "/></g></g><g transform="translate(26.706609, 9.569871)"><g><path d="M 1.703125 1.328125 C 1.347656 1.328125 1.097656 1.351562 0.953125 1.40625 C 0.804688 1.457031 0.734375 1.566406 0.734375 1.734375 C 0.734375 1.910156 0.804688 2.023438 0.953125 2.078125 C 1.097656 2.128906 1.347656 2.15625 1.703125 2.15625 L 4.578125 2.15625 C 4.867188 2.15625 5.078125 2.128906 5.203125 2.078125 C 5.335938 2.023438 5.40625 1.914062 5.40625 1.75 C 5.40625 1.59375 5.335938 1.484375 5.203125 1.421875 C 5.078125 1.359375 4.867188 1.328125 4.578125 1.328125 Z M 1.71875 3.109375 C 1.113281 3.109375 0.664062 3 0.375 2.78125 C 0.0820312 2.5625 -0.0625 2.21875 -0.0625 1.75 C -0.0625 1.28125 0.0820312 0.9375 0.375 0.71875 C 0.675781 0.5 1.125 0.390625 1.71875 0.390625 L 4.53125 0.390625 C 5.65625 0.390625 6.21875 0.847656 6.21875 1.765625 C 6.21875 2.242188 6.070312 2.585938 5.78125 2.796875 C 5.5 3.003906 5.082031 3.109375 4.53125 3.109375 Z M 1.71875 3.109375 "/></g></g><g transform="translate(26.706609, 13.060729)"><g><path d="M -0.0625 1.625 C -0.0625 1.226562 0.0859375 0.921875 0.390625 0.703125 C 0.691406 0.492188 1.160156 0.390625 1.796875 0.390625 L 4.46875 0.390625 C 5.039062 0.390625 5.472656 0.5 5.765625 0.71875 C 6.066406 0.9375 6.21875 1.289062 6.21875 1.78125 C 6.21875 2.382812 5.992188 2.765625 5.546875 2.921875 C 5.273438 3.023438 4.90625 3.078125 4.4375 3.078125 L 4 3.078125 L 4 2.203125 L 4.640625 2.203125 C 4.921875 2.203125 5.117188 2.171875 5.234375 2.109375 C 5.347656 2.046875 5.40625 1.929688 5.40625 1.765625 C 5.40625 1.609375 5.335938 1.492188 5.203125 1.421875 C 5.066406 1.359375 4.828125 1.328125 4.484375 1.328125 L 1.8125 1.328125 C 1.40625 1.328125 1.125 1.359375 0.96875 1.421875 C 0.8125 1.484375 0.734375 1.597656 0.734375 1.765625 C 0.734375 1.941406 0.816406 2.066406 0.984375 2.140625 C 1.160156 2.210938 1.445312 2.25 1.84375 2.25 L 2.671875 2.25 L 2.671875 1.78125 L 3.359375 1.78125 L 3.359375 3.078125 L 0 3.078125 L 0 2.65625 L 0.609375 2.515625 C 0.398438 2.460938 0.234375 2.351562 0.109375 2.1875 C -0.00390625 2.019531 -0.0625 1.832031 -0.0625 1.625 Z M -0.0625 1.625 "/></g></g></g></svg>