<svg xmlns="http://www.w3.org/2000/svg" xmlns:xlink="http://www.w3.org/1999/xlink" width="250" zoomAndPan="magnify" viewBox="0 0 187.5 187.499992" height="250" preserveAspectRatio="xMidYMid meet" version="1.0"><defs><g/><clipPath id="id1"><path d="M 0 0 L 187 0 L 187 187 L 0 187 Z M 0 0 " clip-rule="nonzero"/></clipPath><clipPath id="id2"><path d="M 93.636719 109.867188 L 121.386719 109.867188 L 121.386719 144.367188 L 93.636719 144.367188 Z M 93.636719 109.867188 " clip-rule="nonzero"/></clipPath></defs><g clip-path="url(#id1)"><path fill="#ffffff" d="M 0 0 L 187.5 0 L 187.5 195 L 0 195 Z M 0 0 " fill-opacity="1" fill-rule="nonzero"/><path fill="#ffffff" d="M 0 0 L 187.5 0 L 187.5 187.5 L 0 187.5 Z M 0 0 " fill-opacity="1" fill-rule="nonzero"/><path fill="#09504c" d="M 0 0 L 187.5 0 L 187.5 187.5 L 0 187.5 Z M 0 0 " fill-opacity="1" fill-rule="nonzero"/></g><g fill="#eeeeee" fill-opacity="1"><g transform="translate(42.182215, 149.739331)"><g><path d="M 18.957031 -89.558594 L 18.957031 -7.828125 L 7.554688 -7.828125 L 7.554688 0 L 40.246094 0 L 40.246094 -7.828125 L 28.433594 -7.828125 L 28.433594 -43.957031 L 62.5 -43.957031 L 62.5 -51.921875 L 28.433594 -51.921875 L 28.433594 -89.558594 L 68.40625 -89.558594 L 68.40625 -77.882812 L 76.375 -77.882812 L 76.375 -97.527344 L 7.554688 -97.527344 L 7.554688 -89.558594 Z M 18.957031 -89.558594 "/></g></g></g><g clip-path="url(#id2)"><path fill="#eeeeee" d="M 112.621094 109.949219 C 112.78125 109.949219 112.941406 109.949219 113.101562 109.949219 C 113.101562 109.976562 113.101562 110.003906 113.101562 110.03125 C 113.476562 110.207031 113.578125 110.941406 113.507812 111.8125 C 113.394531 113.167969 112.671875 114.902344 112.542969 116.746094 C 112.390625 118.875 113.050781 120.992188 112.460938 122.574219 C 111.828125 124.269531 110.597656 125.273438 110.449219 126.78125 C 110.285156 128.414062 111.160156 131.15625 112.300781 132.121094 C 112.855469 132.59375 114.082031 132.78125 114.953125 132.609375 C 115.84375 132.429688 116.199219 131.449219 117.367188 131.476562 C 118.074219 131.492188 118.699219 132.117188 119.378906 132.445312 C 120.089844 132.789062 120.730469 133.054688 121.390625 133.417969 C 120.195312 133.824219 118.515625 134.226562 117.851562 135.277344 C 117.476562 135.871094 117.433594 136.832031 116.964844 137.382812 C 116.40625 138.042969 115.195312 138.664062 114.230469 139.164062 C 111.511719 140.566406 107.890625 140.722656 104.738281 139.246094 C 102.5 141.148438 101.054688 144.28125 97.175781 144.261719 C 97.054688 143.613281 98.039062 143.261719 97.738281 142.96875 C 96.707031 143.097656 95 143.878906 94.117188 143.128906 C 94.261719 142.21875 95.070312 141.980469 95.566406 141.429688 C 95.222656 141.488281 94.519531 141.613281 94.199219 141.429688 C 94.554688 140.488281 95.535156 139.964844 96.371094 139.488281 C 98.917969 138.03125 102.050781 137.011719 104.738281 135.683594 C 102.972656 134.550781 98.492188 132.894531 99.589844 129.613281 C 97.714844 128.609375 96.070312 126.953125 96.449219 123.949219 C 95.65625 122.890625 94.429688 121.964844 94.441406 120.46875 C 94.441406 120.101562 94.773438 119.695312 94.761719 119.335938 C 94.746094 118.894531 94.28125 118.269531 94.117188 117.800781 C 93.925781 117.246094 93.800781 116.753906 93.636719 116.179688 C 93.636719 115.777344 93.636719 115.371094 93.636719 114.96875 C 94.136719 113.726562 94.941406 115.296875 95.40625 116.101562 C 97.222656 119.226562 98.972656 121.957031 101.441406 124.273438 C 102.199219 124.984375 102.957031 125.558594 103.773438 126.214844 C 103.949219 126.359375 104.101562 126.773438 104.414062 126.621094 C 104.378906 124.699219 104.488281 123.121094 105.058594 121.683594 C 105.410156 120.796875 106.195312 120.070312 106.347656 119.335938 C 106.4375 118.898438 106.304688 118.484375 106.347656 118.042969 C 106.558594 115.738281 107.777344 114.339844 109.644531 113.511719 C 109.765625 112.28125 110.421875 111.59375 111.496094 111.324219 C 111.773438 110.769531 112.152344 110.3125 112.621094 109.949219 Z M 98.382812 143.53125 C 99.523438 143.496094 100.320312 142.632812 101.035156 141.996094 C 103.3125 139.96875 105.230469 137.761719 107.957031 136.25 C 107.136719 137.203125 106.050781 137.894531 105.300781 138.921875 C 106.925781 139.46875 108.503906 139.933594 110.207031 139.890625 C 111.925781 139.847656 115.132812 138.332031 116.082031 137.464844 C 116.875 136.734375 116.871094 135.546875 117.449219 134.710938 C 118.003906 133.90625 119.351562 133.664062 120.183594 133.253906 C 118.800781 133.316406 118.476562 131.972656 117.285156 132.042969 C 116.785156 132.070312 116.429688 132.574219 116 132.769531 C 112.515625 134.351562 110.125 131.195312 109.804688 128.320312 C 109.40625 124.710938 112.046875 123.976562 112.300781 120.875 C 112.414062 119.460938 111.925781 118.136719 111.976562 116.828125 C 112.0625 114.671875 113.316406 112.75 112.78125 110.515625 C 111.808594 110.550781 111.882812 111.765625 111.65625 112.457031 C 111.382812 113.285156 111.015625 114.039062 110.691406 114.644531 C 110.910156 113.703125 111.167969 112.800781 111.332031 111.808594 C 110.386719 111.996094 110.40625 113.339844 110.128906 114.320312 C 109.828125 115.367188 109.464844 116.476562 109.160156 117.3125 C 109.285156 116.277344 109.433594 115.265625 109.5625 114.238281 C 105.761719 115.304688 107.09375 121.65625 106.75 125.972656 C 106.191406 124.484375 106.460938 122.160156 106.265625 120.308594 C 104.535156 122.613281 104.789062 127.691406 105.460938 130.664062 C 105.332031 130.09375 105.074219 129.652344 104.980469 129.046875 C 101.804688 129.019531 105.375 132.9375 105.542969 133.820312 C 104.96875 132.847656 103.199219 131.480469 103.128906 129.9375 C 103.097656 129.238281 103.429688 128.378906 104.496094 128.398438 C 104.496094 128.128906 104.496094 127.859375 104.496094 127.589844 C 101.371094 125.214844 98.308594 122.28125 96.371094 118.769531 C 95.734375 117.613281 95.265625 116.21875 94.117188 115.535156 C 94.46875 118.148438 95.65625 120.351562 96.53125 122.167969 C 96.085938 121.460938 95.660156 120.726562 95.164062 120.066406 C 95.226562 122.617188 97.554688 124.023438 98.460938 125.730469 C 97.898438 125.296875 97.535156 124.664062 96.851562 124.355469 C 96.808594 128.496094 100.523438 129.292969 102.566406 131.070312 C 101.757812 130.644531 100.910156 130.253906 100.070312 129.855469 C 99.726562 130.785156 99.957031 131.648438 100.3125 132.121094 C 101.457031 133.652344 104.378906 134.675781 105.78125 135.765625 C 103.042969 136.996094 100.148438 138.320312 97.496094 139.566406 C 96.597656 139.992188 95.523438 140.289062 94.921875 141.105469 C 96.652344 141.035156 97.980469 140.136719 99.347656 139.972656 C 97.746094 140.789062 95.964844 141.425781 94.921875 142.804688 C 97.515625 143.226562 99.132812 141.539062 100.875 141.105469 C 99.976562 141.84375 98.902344 142.410156 98.382812 143.53125 Z M 98.382812 143.53125 " fill-opacity="1" fill-rule="evenodd"/></g><g fill="#eeeeee" fill-opacity="1"><g transform="translate(121.403746, 48.28066)"><g><path d="M 14.953125 10.125 C 12.796875 10.125 11.46875 9.535156 10.96875 8.359375 C 10.488281 9.796875 8.90625 10.515625 6.21875 10.515625 L 5.703125 10.515625 C 3.679688 10.492188 2.222656 10.140625 1.328125 9.453125 C 0.441406 8.765625 0 7.640625 0 6.078125 L 0 1.625 L 20.125 1.625 L 20.125 5.984375 C 20.125 7.484375 19.773438 8.546875 19.078125 9.171875 C 18.378906 9.796875 17.210938 10.113281 15.578125 10.125 Z M 2.375 4.6875 L 2.375 5.78125 C 2.375 6.382812 2.582031 6.804688 3 7.046875 C 3.425781 7.296875 4.179688 7.421875 5.265625 7.421875 L 6.890625 7.421875 C 7.910156 7.421875 8.628906 7.320312 9.046875 7.125 C 9.472656 6.925781 9.6875 6.546875 9.6875 5.984375 L 9.6875 4.6875 Z M 11.984375 4.6875 L 11.984375 5.828125 C 11.984375 6.347656 12.148438 6.691406 12.484375 6.859375 C 12.816406 7.023438 13.507812 7.109375 14.5625 7.109375 L 15.765625 7.109375 C 16.546875 7.097656 17.066406 6.988281 17.328125 6.78125 C 17.585938 6.570312 17.71875 6.21875 17.71875 5.71875 L 17.71875 4.6875 Z M 11.984375 4.6875 "/></g></g></g><g fill="#eeeeee" fill-opacity="1"><g transform="translate(121.403746, 59.667576)"><g><path d="M 0 1.515625 L 20.125 1.515625 L 20.125 4.578125 L 2.609375 4.578125 L 2.609375 8.453125 L 0 8.453125 Z M 0 1.515625 "/></g></g></g><g fill="#eeeeee" fill-opacity="1"><g transform="translate(121.403746, 68.36782)"><g><path d="M 5.59375 4.34375 C 4.40625 4.34375 3.578125 4.429688 3.109375 4.609375 C 2.648438 4.796875 2.421875 5.164062 2.421875 5.71875 C 2.421875 6.269531 2.660156 6.632812 3.140625 6.8125 C 3.617188 6.988281 4.4375 7.078125 5.59375 7.078125 L 14.96875 7.078125 C 15.925781 7.078125 16.625 6.988281 17.0625 6.8125 C 17.5 6.632812 17.71875 6.28125 17.71875 5.75 C 17.71875 5.226562 17.5 4.863281 17.0625 4.65625 C 16.625 4.445312 15.929688 4.34375 14.984375 4.34375 Z M 5.625 10.15625 C 3.65625 10.15625 2.1875 9.800781 1.21875 9.09375 C 0.25 8.394531 -0.234375 7.273438 -0.234375 5.734375 C -0.234375 4.191406 0.25 3.0625 1.21875 2.34375 C 2.195312 1.625 3.664062 1.265625 5.625 1.265625 L 14.828125 1.265625 C 18.523438 1.265625 20.375 2.769531 20.375 5.78125 C 20.375 7.332031 19.90625 8.445312 18.96875 9.125 C 18.03125 9.8125 16.648438 10.15625 14.828125 10.15625 Z M 5.625 10.15625 "/></g></g></g><g fill="#eeeeee" fill-opacity="1"><g transform="translate(121.403746, 79.789033)"><g><path d="M -0.203125 5.296875 C -0.203125 4.023438 0.289062 3.035156 1.28125 2.328125 C 2.28125 1.617188 3.816406 1.265625 5.890625 1.265625 L 14.640625 1.265625 C 16.492188 1.265625 17.910156 1.625 18.890625 2.34375 C 19.867188 3.070312 20.359375 4.234375 20.359375 5.828125 C 20.359375 7.796875 19.625 9.046875 18.15625 9.578125 C 17.269531 9.898438 16.0625 10.0625 14.53125 10.0625 L 13.09375 10.0625 L 13.09375 7.203125 L 15.203125 7.203125 C 16.117188 7.203125 16.765625 7.101562 17.140625 6.90625 C 17.515625 6.71875 17.703125 6.351562 17.703125 5.8125 C 17.703125 5.28125 17.476562 4.898438 17.03125 4.671875 C 16.582031 4.453125 15.789062 4.34375 14.65625 4.34375 L 5.9375 4.34375 C 4.613281 4.34375 3.691406 4.441406 3.171875 4.640625 C 2.660156 4.835938 2.40625 5.222656 2.40625 5.796875 C 2.40625 6.378906 2.679688 6.789062 3.234375 7.03125 C 3.796875 7.269531 4.734375 7.390625 6.046875 7.390625 L 8.765625 7.390625 L 8.765625 5.84375 L 10.984375 5.84375 L 10.984375 10.0625 L 0 10.0625 L 0 8.6875 L 1.984375 8.21875 C 1.296875 8.0625 0.757812 7.710938 0.375 7.171875 C -0.0078125 6.628906 -0.203125 6.003906 -0.203125 5.296875 Z M -0.203125 5.296875 "/></g></g></g></svg>